<?xml version="1.0" encoding="UTF-8"?>
<svg version="1.1" xmlns="http://www.w3.org/2000/svg" >
<path d="M0 0 C8.8919384 6.39378602 14.24219148 14.30405786 19 24 C20.27230469 23.58427734 20.27230469 23.58427734 21.5703125 23.16015625 C48.31809141 14.90067727 72.66658836 22.75746688 98.28491211 31.23291016 C107.24097234 34.17624339 115.46940046 36.38225415 124.9375 36.3125 C126.11481689 36.30621582 126.11481689 36.30621582 127.31591797 36.29980469 C135.12863983 36.14785024 141.34753411 34.44469647 148.25 30.8125 C151.65426201 29.03487125 154.10725386 28.29222797 158 29 C162.35773923 32.39800913 164.27595335 37.11866938 166.59765625 41.98828125 C167.02835419 42.87479874 167.45905212 43.76131622 167.90280151 44.67469788 C169.29735498 47.55017822 170.68004146 50.43118796 172.0625 53.3125 C173.02152947 55.29606814 173.98124805 57.27930325 174.94165039 59.26220703 C177.63843751 64.83636623 180.3210334 70.4172594 183 76 C183.61024982 77.26974291 184.22058722 78.53944375 184.83105469 79.80908203 C187.03034184 84.38676766 189.22095241 88.96844944 191.40234375 93.5546875 C194.5736615 100.2165748 197.78867631 106.85734155 201 113.5 C205.66783983 123.15780575 210.31888504 132.82336984 214.93945312 142.50390625 C217.36499108 147.58495908 219.79841309 152.66206356 222.2421875 157.734375 C222.78536621 158.86262695 223.32854492 159.99087891 223.88818359 161.15332031 C224.93416421 163.32513222 225.98129659 165.49638994 227.02978516 167.66699219 C227.96113925 169.60175628 228.88651291 171.53941544 229.8046875 173.48046875 C230.52155144 174.99150549 231.25167025 176.49651223 232.0078125 177.98828125 C234.41428235 182.96989874 234.98223801 187.72747043 233.39941406 193.00097656 C232.56539163 195.09879309 231.63115844 197.10417838 230.625 199.125 C230.26704346 199.85928223 229.90908691 200.59356445 229.5402832 201.35009766 C218.47233074 223.32453063 200.59812103 240.0589988 177.25 248.328125 C157.27150268 254.37859589 136.83671683 251.62742065 118.515625 242.12597656 C113.2105173 239.2440269 108.46261093 236.09006614 104 232 C103.05769531 231.14921875 102.11539062 230.2984375 101.14453125 229.421875 C91.01186368 219.96450268 83.5796749 209.08346137 77.8125 196.5 C77.50852295 195.85385742 77.2045459 195.20771484 76.89135742 194.54199219 C74.66763375 189.36068249 74.7284238 185.31075603 76.75563049 180.03259277 C77.74300163 177.85833925 78.79112783 175.72549528 79.8671875 173.59375 C80.25764755 172.80044281 80.6481076 172.00713562 81.05039978 171.18978882 C82.31644982 168.62205843 83.59572963 166.06116544 84.875 163.5 C85.75458822 161.72075272 86.63308234 159.94096416 87.51049805 158.16064453 C89.23417028 154.6642908 90.96159007 151.16983361 92.69189453 147.67675781 C95.44975444 142.10012785 98.14455151 136.49522909 100.8125 130.875 C104.84626568 122.40268002 108.91622675 113.94828793 113 105.5 C121.75804424 87.37645141 130.46100636 69.22793771 139 51 C138.13109131 51.24012817 138.13109131 51.24012817 137.24462891 51.48510742 C121.61004787 55.07150414 105.12290391 50.26893996 90.31640625 45.61328125 C89.62692398 45.39649719 88.93744171 45.17971313 88.22706604 44.95635986 C84.7677349 43.86412077 81.31494924 42.75557411 77.87036133 41.61767578 C60.51996691 35.95222446 42.52763336 31.55675775 24.91015625 38.8671875 C23.58940712 39.54532275 22.29119678 40.26715858 21 41 C20.34 41 19.68 41 19 41 C18.938125 42.27875 18.87625 43.5575 18.8125 44.875 C17.6249461 54.99295923 11.63735009 63.49410918 4 70 C-1.56990771 73.57680113 -7.57784793 76.39446198 -14 78 C-14.33 148.95 -14.66 219.9 -15 293 C-10.71 293.33 -6.42 293.66 -2 294 C1.47858913 294.62449449 4.83080594 295.28370094 8.25 296.125 C9.59215576 296.45322754 9.59215576 296.45322754 10.96142578 296.78808594 C30.34760452 301.75254514 46.92513805 310.90340067 62 324 C62.63164062 324.49886719 63.26328125 324.99773437 63.9140625 325.51171875 C69.45845715 329.92951266 73.67524885 335.42039877 78 341 C78.69480469 341.89074219 79.38960938 342.78148437 80.10546875 343.69921875 C93.19063441 361.03643051 93.19063441 361.03643051 94 371 C91.86956522 375.56521739 91.86956522 375.56521739 89 377 C86.11167599 377.10254137 83.24720812 377.14336866 80.35842896 377.14044189 C79.45299374 377.14341302 78.54755853 377.14638414 77.61468589 377.1494453 C74.5622879 377.158159 71.509929 377.15964279 68.45751953 377.16113281 C66.27654943 377.16575906 64.09558015 377.17078346 61.91461182 377.17617798 C55.97663482 377.18932179 50.03866915 377.19575069 44.10067987 377.20018864 C40.39431638 377.20311591 36.68795601 377.20722004 32.98159409 377.21169281 C20.72874148 377.22615922 8.4758974 377.23548618 -3.77696298 377.23955932 C-4.4378943 377.23978209 -5.09882562 377.24000486 -5.77978516 377.24023438 C-6.44152139 377.2404558 -7.10325763 377.24067723 -7.78504647 377.24090537 C-17.84321648 377.24460874 -27.90132655 377.25943079 -37.95947266 377.28125 C-49.63287825 377.30648954 -61.30623673 377.32142473 -72.97967064 377.32293582 C-79.16139203 377.32398605 -85.34301767 377.32994023 -91.52471542 377.34775543 C-97.33753995 377.36418124 -103.15019618 377.36641839 -108.96303558 377.35761642 C-111.09961267 377.35684312 -113.23619861 377.3612271 -115.37275314 377.37107468 C-118.28352563 377.38370665 -121.19369415 377.37796516 -124.10446167 377.36749268 C-124.95523659 377.37554908 -125.8060115 377.38360548 -126.68256748 377.39190602 C-130.03065637 377.36362125 -132.52074104 377.25978322 -135.49615669 375.64695358 C-137.79645561 373.12775127 -137.95558054 371.3920314 -138 368 C-137.02022244 365.29310704 -136.02881803 363.01258818 -134.6875 360.5 C-134.32575684 359.80366455 -133.96401367 359.1073291 -133.59130859 358.38989258 C-117.9726176 329.16536525 -91.22792676 307.97597281 -59.7265625 298.0625 C-49.2969533 295.0888588 -39.94289044 293.8417608 -29 293 C-29.33 222.05 -29.66 151.1 -30 78 C-33.63 76.68 -37.26 75.36 -41 74 C-53.44870436 66.86274283 -60.09750733 57.59538253 -63.8828125 43.77734375 C-64.74624363 40.95046727 -64.74624363 40.95046727 -66.8125 39.609375 C-78.74085705 34.92323473 -90.10629352 33.82415261 -102.6875 36.375 C-103.5127417 36.5392749 -104.3379834 36.7035498 -105.18823242 36.87280273 C-114.89405956 38.96505067 -124.29107061 42.16684976 -133.67260742 45.38232422 C-145.62041397 49.41656843 -157.48054358 52.59372156 -170.1875 52.25 C-170.99251953 52.24484375 -171.79753906 52.2396875 -172.62695312 52.234375 C-176.2827004 52.18583396 -179.45592121 51.92482532 -183 51 C-182.48203857 52.060979 -181.96407715 53.12195801 -181.43041992 54.21508789 C-172.32040473 72.87923384 -163.21614886 91.54437912 -154.2890625 110.296875 C-151.89001022 115.32761493 -149.47549053 120.35093475 -147.0625 125.375 C-146.56451904 126.41221191 -146.06653809 127.44942383 -145.5534668 128.51806641 C-142.5013023 134.87497471 -139.44817953 141.23142228 -136.39306641 147.58691406 C-135.38906667 149.67887621 -134.38739943 151.77195956 -133.38818359 153.86621094 C-130.96872157 158.93334064 -128.51793179 163.97904492 -125.98828125 168.9921875 C-125.51600098 169.94254883 -125.0437207 170.89291016 -124.55712891 171.87207031 C-123.67152235 173.6521237 -122.77231666 175.42550395 -121.85693359 177.19042969 C-119.36649827 182.24084843 -118.43969786 185.36043337 -120 191 C-124.75622562 205.00535642 -132.82885272 216.35997004 -143 227 C-143.93585938 228.04800781 -143.93585938 228.04800781 -144.890625 229.1171875 C-157.08516903 242.28524555 -175.90166693 250.32934327 -193.70703125 251.3203125 C-216.07143773 252.07142062 -235.45521811 245.30260178 -252 230 C-252.76570313 229.32582031 -253.53140625 228.65164063 -254.3203125 227.95703125 C-264.89573242 218.13699847 -276.52584542 201.81802666 -278.5078125 187.2734375 C-278.26804565 181.50032307 -275.32965183 176.60803035 -272.75 171.5625 C-271.63760379 169.31921717 -270.52563621 167.07572175 -269.4140625 164.83203125 C-268.55796387 163.12394287 -268.55796387 163.12394287 -267.68457031 161.38134766 C-265.10330875 156.20011974 -262.61672908 150.9747015 -260.125 145.75 C-255.74598353 136.61687059 -251.34412005 127.49482924 -246.9375 118.375 C-241.83582055 107.8165004 -236.76089497 97.24553184 -231.70703125 86.6640625 C-228.3388548 79.61290377 -224.96073939 72.56649397 -221.57006836 65.52612305 C-218.91376419 60.00725441 -216.2808324 54.47869955 -213.6796875 48.93359375 C-213.13691162 47.78358887 -212.59413574 46.63358398 -212.03491211 45.44873047 C-210.98989763 43.23348505 -209.95137572 41.01516225 -208.92016602 38.79345703 C-208.21525024 37.30434814 -208.21525024 37.30434814 -207.49609375 35.78515625 C-206.88012329 34.46849976 -206.88012329 34.46849976 -206.25170898 33.12524414 C-205 31 -205 31 -202 29 C-196.70546007 28.09605416 -193.23531458 30.18403039 -188.7578125 32.7109375 C-173.40975195 39.88496013 -156.34898712 35.79978413 -141 31 C-139.84306641 30.64099609 -138.68613281 30.28199219 -137.49414062 29.91210938 C-136.24310547 29.52345703 -134.99207031 29.13480469 -133.703125 28.734375 C-132.74476494 28.43671486 -132.74476494 28.43671486 -131.76704407 28.13304138 C-128.58227828 27.14212056 -125.40175548 26.14087148 -122.2253418 25.12329102 C-102.64646976 18.90380512 -82.57626442 16.30932469 -63 24 C-62.59910156 23.16597656 -62.19820312 22.33195312 -61.78515625 21.47265625 C-55.50268996 9.03593726 -48.20294389 1.34996279 -35 -4 C-23.64225415 -7.24959328 -10.16079822 -5.86673276 0 0 Z M-41 17 C-46.95338378 23.38589457 -49.52313189 29.59326816 -49.3125 38.34765625 C-48.40297331 46.06726402 -44.7804687 52.83739613 -39 58 C-31.76185847 63.14991415 -24.69022596 63.78703933 -16 63 C-8.22313626 60.82861468 -2.22808649 56.45960188 1.8125 49.4375 C5.25035729 43.01794124 6.21182709 36.54262039 4.31640625 29.4375 C1.40771614 21.52006965 -2.38587931 16.15671988 -9.875 12.125 C-21.2657771 6.96594849 -31.55678825 8.9413193 -41 17 Z M-200 55 C-211.5142206 78.70038073 -211.5142206 78.70038073 -222.9152832 102.45532227 C-226.28760441 109.52206499 -229.68675523 116.57564427 -233.09414673 123.6255188 C-235.168558 127.91809581 -237.24064986 132.21179309 -239.31298828 136.50537109 C-240.40196121 138.76116827 -241.49144254 141.01672012 -242.58154297 143.27197266 C-244.03648588 146.28406715 -245.48751994 149.29801394 -246.9375 152.3125 C-247.5552832 153.58867187 -247.5552832 153.58867187 -248.18554688 154.890625 C-252.00531464 162.84898544 -255.45344957 170.89359901 -259 179 C-219.4 179 -179.8 179 -139 179 C-140.7259755 173.8154233 -140.7259755 173.8154233 -142.88842773 168.92016602 C-143.25360001 168.17313919 -143.61877228 167.42611237 -143.99501038 166.65644836 C-144.38724289 165.86360947 -144.7794754 165.07077057 -145.18359375 164.25390625 C-145.59488022 163.41470139 -146.00616669 162.57549652 -146.42991638 161.71086121 C-147.30799741 159.92009116 -148.1877491 158.13013949 -149.06903076 156.34094238 C-151.36719215 151.67491933 -153.65326704 147.0029747 -155.94140625 142.33203125 C-156.61266541 140.96315262 -156.61266541 140.96315262 -157.29748535 139.56661987 C-160.5267976 132.97830925 -163.72262473 126.37552936 -166.875 119.75 C-170.86846537 111.36168843 -174.89457768 102.98956787 -178.9375 94.625 C-185.31529647 81.42796505 -191.66473791 68.21751655 -198 55 C-198.66 55 -199.32 55 -200 55 Z M154 55 C150.92429978 61.27161427 147.85039352 67.54410569 144.77758789 73.81713867 C143.73761169 75.93972484 142.69726236 78.06212824 141.65649414 80.18432617 C134.73881231 94.2907746 127.89636839 108.43049806 121.13778687 122.61386108 C118.78931621 127.53901657 116.42481667 132.45647468 114.0625 137.375 C113.57869873 138.38393311 113.09489746 139.39286621 112.59643555 140.43237305 C109.94537528 145.95914525 107.2841311 151.48074667 104.609375 156.99609375 C104.05757568 158.1370752 103.50577637 159.27805664 102.93725586 160.45361328 C101.87603913 162.64748553 100.81187639 164.83993584 99.74438477 167.03076172 C99.02980103 168.51020264 99.02980103 168.51020264 98.30078125 170.01953125 C97.87966064 170.88682861 97.45854004 171.75412598 97.0246582 172.64770508 C95.82928441 175.21514613 95.82928441 175.21514613 95 179 C134.6 179 174.2 179 215 179 C208.24451649 163.85218805 208.24451649 163.85218805 201.1328125 148.88671875 C200.73134003 148.06714188 200.32986755 147.247565 199.91622925 146.40315247 C199.07963554 144.69599432 198.2416843 142.98950072 197.40234375 141.28369141 C195.20168744 136.81087429 193.01183995 132.33276371 190.8203125 127.85546875 C190.39486145 126.9869931 189.9694104 126.11851746 189.53106689 125.22372437 C185.05591794 116.08397256 180.66606655 106.90473831 176.29492188 97.71484375 C174.31672384 93.56749039 172.323019 89.42761978 170.33105469 85.28686523 C165.48904431 75.22077726 160.68306363 65.14114131 156 55 C155.34 55 154.68 55 154 55 Z M-259 194 C-256.70323421 200.89029737 -253.42426506 205.34545802 -249 211 C-248.39027344 211.79019531 -247.78054687 212.58039063 -247.15234375 213.39453125 C-237.04684056 225.64557652 -221.61802391 234.68544618 -205.70605469 236.22143555 C-186.87987064 237.16515939 -170.52140236 232.2650685 -156.3125 219.4375 C-148.65183396 212.24202396 -141.91599785 203.78999462 -138 194 C-177.93 194 -217.86 194 -259 194 Z M94 194 C103.55749564 213.11499127 116.96887644 226.27917314 137 234 C152.99322681 238.8127008 169.09052546 236.43735997 183.80102539 228.95947266 C196.9308782 221.89940343 209.08625716 209.88173319 215 196 C215 195.34 215 194.68 215 194 C175.07 194 135.14 194 94 194 Z M-54 312 C-54.67530762 312.20898926 -55.35061523 312.41797852 -56.04638672 312.63330078 C-71.28905388 317.49565697 -85.18593774 325.17044293 -97 336 C-97.91265625 336.83144531 -98.8253125 337.66289062 -99.765625 338.51953125 C-106.88794621 345.31358905 -112.6481178 352.75740486 -118 361 C-118 361.33 -118 361.66 -118 362 C-54.97 362 8.06 362 73 362 C71.24920245 357.62300612 69.34708252 354.45282661 66.5 350.8125 C66.05712646 350.24442627 65.61425293 349.67635254 65.15795898 349.09106445 C47.51088656 326.85668938 22.63931555 313.49715014 -5.0390625 308.4453125 C-21.43581318 306.60189083 -38.21551726 307.01844015 -54 312 Z " fill="#000000" transform="translate(278,47)"/>
<path d="M0 0 C1.05350077 -0.00507454 2.10700153 -0.01014909 3.19242656 -0.0153774 C4.9421949 -0.01612404 4.9421949 -0.01612404 6.72731209 -0.01688576 C8.57549119 -0.02345914 8.57549119 -0.02345914 10.46100724 -0.03016531 C13.89205282 -0.04124779 17.3230527 -0.04778327 20.75410962 -0.05234647 C24.4501731 -0.05829582 28.1462197 -0.06990718 31.8422718 -0.08063698 C40.77293153 -0.10517416 49.70359684 -0.11978895 58.63427991 -0.13269705 C61.15532272 -0.13640766 63.67636498 -0.14038099 66.19740725 -0.14444971 C81.84272495 -0.16968209 97.48804351 -0.19174167 113.13337708 -0.20417786 C116.75828619 -0.20710769 120.38319528 -0.21006934 124.00810432 -0.21308327 C124.90908974 -0.21382932 125.81007516 -0.21457537 126.73836316 -0.21534403 C141.34347647 -0.22800571 155.94846826 -0.26123911 170.55352472 -0.3028851 C185.53757261 -0.34526272 200.52155822 -0.36886795 215.5056659 -0.37409842 C223.92308464 -0.37751702 232.34031339 -0.38932494 240.75767326 -0.42220116 C247.92415156 -0.45014546 255.09040094 -0.46122582 262.2569295 -0.4500057 C265.91525327 -0.44480472 269.57309721 -0.44779784 273.23135185 -0.47247124 C277.19309313 -0.49896927 281.15417358 -0.48695237 285.11598396 -0.47098732 C286.27803474 -0.48486941 287.44008552 -0.49875149 288.63734996 -0.51305425 C296.37632728 -0.43577574 296.37632728 -0.43577574 299.7983284 2.479702 C301.40503987 5.89450096 301.20979109 7.57612551 300.04863167 11.13701439 C298.37727342 13.36693021 297.52267229 14.05969672 294.74305534 14.51306188 C293.8284164 14.51354894 292.91377747 14.514036 291.9714222 14.51453781 C290.91531368 14.52236105 289.85920517 14.5301843 288.77109337 14.53824461 C287.60681187 14.53155244 286.44253036 14.52486027 285.24296761 14.51796532 C284.00928822 14.52264529 282.77560883 14.52732526 281.50454521 14.53214705 C278.07366658 14.54206686 274.64327824 14.53846427 271.21242905 14.52918839 C267.51503088 14.52241865 263.81767649 14.53286879 260.12028694 14.54112816 C252.8745525 14.55448994 245.62891112 14.55157691 238.38317299 14.54289024 C232.49605735 14.53612369 226.60896785 14.5351925 220.72184944 14.53846169 C219.46651976 14.53915123 219.46651976 14.53915123 218.18582988 14.53985471 C216.48587767 14.54081386 214.78592546 14.5417865 213.08597326 14.54277249 C197.13377808 14.55133354 181.18163455 14.54148105 165.22944784 14.52537139 C151.53243115 14.51196755 137.83549073 14.51429545 124.13847542 14.52812767 C108.2445837 14.54417087 92.35073729 14.5505095 76.45683861 14.54129088 C74.76303038 14.5403352 73.06922214 14.53939209 71.37541389 14.53846169 C70.54195969 14.53799886 69.70850549 14.53753603 68.8497951 14.53705918 C62.96761728 14.5344655 57.08546813 14.5388484 51.20329475 14.54590034 C44.03793293 14.55430157 36.87266974 14.55206434 29.70731926 14.53605811 C26.04924018 14.52815673 22.39132573 14.52511534 18.73324776 14.53500557 C14.77350334 14.54554973 10.81403036 14.5329866 6.85429573 14.51796532 C5.69001423 14.52465748 4.52573273 14.53134965 3.32616997 14.53824461 C1.7420072 14.52650974 1.7420072 14.52650974 0.12584114 14.51453781 C-0.7887978 14.51405075 -1.70343674 14.5135637 -2.64579201 14.51306188 C-5.42521166 14.0597289 -6.28845001 13.37498862 -7.95136833 11.13701439 C-8.83249541 7.95140112 -9.24360886 5.96877591 -8.13886833 2.82451439 C-5.92659799 -0.3192382 -3.6008072 0.00917705 0 0 Z " fill="#000000" transform="translate(109.95136833190918,455.8629856109619)"/>
</svg>
